#N canvas -10 48 960 955 12;
#X obj 50 684 udpsend;
#X obj 66 665 packOSC;
#X msg 50 332 connect localhost 5001;
#X msg 134 351 disconnect;
#X obj 50 55 vsl 15 128 -10 10 0 0 empty empty Gain 1 -10 0 10 #fcfcfc
#000000 #000000 0 1;
#X floatatom 50 254 5 0 0 0 - - - 0;
#X obj 182 55 vsl 15 128 -10 10 0 0 empty empty Offset 1 -10 0 10 #fcfcfc
#000000 #000000 0 1;
#X floatatom 182 254 5 0 0 0 - - - 0;
#X obj 307 236 dac~;
#X floatatom 68 168 5 0 0 0 - - - 0;
#X obj 50 272 send gain;
#X obj 182 272 send offset;
#X obj 68 149 receive speed;
#X obj 50 231 *;
#X obj 68 212 t b f;
#X obj 151 409 bng 30 250 50 0 empty empty Reset -4 -10 0 10 #ffc7c6
#ff0400 #202020;
#X obj 151 489 bng 30 250 50 0 empty empty Blow -4 -10 0 10 #c6feff
#00faff #131255;
#X msg 151 439 send /reset 1;
#X obj 147 594 hsl 128 15 0 100 0 0 empty empty Friction -2 -8 0 10
#fcfcfc #000000 #000000 0 1;
#X floatatom 144 628 12 0 0 0 - - - 0;
#X msg 144 646 send /friction \$1;
#X msg 151 538 send /blow \$1;
#X obj 144 609 dbtorms;
#N canvas -10 48 960 955 tolvera_receive 0;
#X obj 124 36 unpackOSC;
#X obj 124 17 udpreceive 5000;
#X obj 14 74 print;
#X obj 53 31 tgl 24 0 empty empty Print\\\ OSC -14 -6 0 8 #fcfcfc #000000
#000000 0 1;
#X obj 14 55 spigot;
#X obj 124 55 route /rave/dimensions /rave/speed;
#X obj 241 74 send speed;
#X obj 124 74 outlet;
#X connect 0 0 4 0;
#X connect 0 0 5 0;
#X connect 1 0 0 0;
#X connect 3 0 4 1;
#X connect 4 0 2 0;
#X connect 5 0 7 0;
#X connect 5 1 6 0;
#X restore 307 33 pd tolvera_receive;
#X f 33;
#X obj 23 15 loadbang;
#X msg 23 34 1;
#X msg 155 34 0;
#X obj 50 713 cnv 15 150 45 empty empty empty 20 12 0 14 #dfdfdf #404040
0;
#X text 52 713 Extensions required:;
#X text 69 729 - mrpeach;
#X msg 23 575 40;
#X obj 307 206 nn~ voice_vocalset_b2048_r48000_z16.ts decode;
#N canvas -10 48 960 955 waveshape_cos 0;
#X obj 215 318 inlet;
#X obj 215 414 outlet;
#X obj 215 366 cos;
#X obj 240 366 cos;
#X obj 265 366 cos;
#X obj 290 366 cos;
#X obj 315 366 cos;
#X obj 340 366 cos;
#X obj 365 366 cos;
#X obj 390 366 cos;
#X obj 415 366 cos;
#X obj 440 366 cos;
#X obj 465 366 cos;
#X obj 490 366 cos;
#X obj 515 366 cos;
#X obj 540 366 cos;
#X obj 565 366 cos;
#X obj 590 366 cos;
#X obj 215 395 pack f f f f f f f f f f f f f f f f;
#X obj 215 337 unpack f f f f f f f f f f f f f f f f;
#X connect 0 0 19 0;
#X connect 2 0 18 0;
#X connect 3 0 18 1;
#X connect 4 0 18 2;
#X connect 5 0 18 3;
#X connect 6 0 18 4;
#X connect 7 0 18 5;
#X connect 8 0 18 6;
#X connect 9 0 18 7;
#X connect 10 0 18 8;
#X connect 11 0 18 9;
#X connect 12 0 18 10;
#X connect 13 0 18 11;
#X connect 14 0 18 12;
#X connect 15 0 18 13;
#X connect 16 0 18 14;
#X connect 17 0 18 15;
#X connect 18 0 1 0;
#X connect 19 0 2 0;
#X connect 19 1 3 0;
#X connect 19 2 4 0;
#X connect 19 3 5 0;
#X connect 19 4 6 0;
#X connect 19 5 7 0;
#X connect 19 6 8 0;
#X connect 19 7 9 0;
#X connect 19 8 10 0;
#X connect 19 9 11 0;
#X connect 19 10 12 0;
#X connect 19 11 13 0;
#X connect 19 12 14 0;
#X connect 19 13 15 0;
#X connect 19 14 16 0;
#X connect 19 15 17 0;
#X restore 317 120 pd waveshape_cos;
#X obj 307 177 unpack f f f f f f f f f f f f f f f f;
#X msg 151 519 1;
#N canvas -10 48 960 955 apply_controls 0;
#N canvas 1097 497 267 273 apply_controls 0;
#X obj 81 92 *;
#X obj 81 149 +;
#X obj 99 54 receive gain;
#X obj 99 111 receive offset;
#X obj 99 73 t b f;
#X obj 99 130 t b f;
#X obj 81 35 inlet;
#X obj 81 168 outlet;
#X connect 0 0 1 0;
#X connect 1 0 7 0;
#X connect 2 0 4 0;
#X connect 3 0 5 0;
#X connect 4 0 0 0;
#X connect 4 1 0 1;
#X connect 5 0 1 0;
#X connect 5 1 1 1;
#X connect 6 0 0 0;
#X restore 124 117 pd apply_controls;
#N canvas 1097 497 267 273 apply_controls 0;
#X obj 81 92 *;
#X obj 81 149 +;
#X obj 99 54 receive gain;
#X obj 99 111 receive offset;
#X obj 99 73 t b f;
#X obj 99 130 t b f;
#X obj 81 35 inlet;
#X obj 81 168 outlet;
#X connect 0 0 1 0;
#X connect 1 0 7 0;
#X connect 2 0 4 0;
#X connect 3 0 5 0;
#X connect 4 0 0 0;
#X connect 4 1 0 1;
#X connect 5 0 1 0;
#X connect 5 1 1 1;
#X connect 6 0 0 0;
#X restore 140 140 pd apply_controls;
#N canvas 1097 497 267 273 apply_controls 0;
#X obj 81 92 *;
#X obj 81 149 +;
#X obj 99 54 receive gain;
#X obj 99 111 receive offset;
#X obj 99 73 t b f;
#X obj 99 130 t b f;
#X obj 81 35 inlet;
#X obj 81 168 outlet;
#X connect 0 0 1 0;
#X connect 1 0 7 0;
#X connect 2 0 4 0;
#X connect 3 0 5 0;
#X connect 4 0 0 0;
#X connect 4 1 0 1;
#X connect 5 0 1 0;
#X connect 5 1 1 1;
#X connect 6 0 0 0;
#X restore 157 163 pd apply_controls;
#N canvas 1097 497 267 273 apply_controls 0;
#X obj 81 92 *;
#X obj 81 149 +;
#X obj 99 54 receive gain;
#X obj 99 111 receive offset;
#X obj 99 73 t b f;
#X obj 99 130 t b f;
#X obj 81 35 inlet;
#X obj 81 168 outlet;
#X connect 0 0 1 0;
#X connect 1 0 7 0;
#X connect 2 0 4 0;
#X connect 3 0 5 0;
#X connect 4 0 0 0;
#X connect 4 1 0 1;
#X connect 5 0 1 0;
#X connect 5 1 1 1;
#X connect 6 0 0 0;
#X restore 173 186 pd apply_controls;
#N canvas 1097 497 267 273 apply_controls 0;
#X obj 81 92 *;
#X obj 81 149 +;
#X obj 99 54 receive gain;
#X obj 99 111 receive offset;
#X obj 99 73 t b f;
#X obj 99 130 t b f;
#X obj 81 35 inlet;
#X obj 81 168 outlet;
#X connect 0 0 1 0;
#X connect 1 0 7 0;
#X connect 2 0 4 0;
#X connect 3 0 5 0;
#X connect 4 0 0 0;
#X connect 4 1 0 1;
#X connect 5 0 1 0;
#X connect 5 1 1 1;
#X connect 6 0 0 0;
#X restore 190 209 pd apply_controls;
#N canvas 1097 497 267 273 apply_controls 0;
#X obj 81 92 *;
#X obj 81 149 +;
#X obj 99 54 receive gain;
#X obj 99 111 receive offset;
#X obj 99 73 t b f;
#X obj 99 130 t b f;
#X obj 81 35 inlet;
#X obj 81 168 outlet;
#X connect 0 0 1 0;
#X connect 1 0 7 0;
#X connect 2 0 4 0;
#X connect 3 0 5 0;
#X connect 4 0 0 0;
#X connect 4 1 0 1;
#X connect 5 0 1 0;
#X connect 5 1 1 1;
#X connect 6 0 0 0;
#X restore 207 232 pd apply_controls;
#N canvas 1097 497 267 273 apply_controls 0;
#X obj 81 92 *;
#X obj 81 149 +;
#X obj 99 54 receive gain;
#X obj 99 111 receive offset;
#X obj 99 73 t b f;
#X obj 99 130 t b f;
#X obj 81 35 inlet;
#X obj 81 168 outlet;
#X connect 0 0 1 0;
#X connect 1 0 7 0;
#X connect 2 0 4 0;
#X connect 3 0 5 0;
#X connect 4 0 0 0;
#X connect 4 1 0 1;
#X connect 5 0 1 0;
#X connect 5 1 1 1;
#X connect 6 0 0 0;
#X restore 223 255 pd apply_controls;
#N canvas 1097 497 267 273 apply_controls 0;
#X obj 81 92 *;
#X obj 81 149 +;
#X obj 99 54 receive gain;
#X obj 99 111 receive offset;
#X obj 99 73 t b f;
#X obj 99 130 t b f;
#X obj 81 35 inlet;
#X obj 81 168 outlet;
#X connect 0 0 1 0;
#X connect 1 0 7 0;
#X connect 2 0 4 0;
#X connect 3 0 5 0;
#X connect 4 0 0 0;
#X connect 4 1 0 1;
#X connect 5 0 1 0;
#X connect 5 1 1 1;
#X connect 6 0 0 0;
#X restore 240 278 pd apply_controls;
#N canvas 1097 497 267 273 apply_controls 0;
#X obj 81 92 *;
#X obj 81 149 +;
#X obj 99 54 receive gain;
#X obj 99 111 receive offset;
#X obj 99 73 t b f;
#X obj 99 130 t b f;
#X obj 81 35 inlet;
#X obj 81 168 outlet;
#X connect 0 0 1 0;
#X connect 1 0 7 0;
#X connect 2 0 4 0;
#X connect 3 0 5 0;
#X connect 4 0 0 0;
#X connect 4 1 0 1;
#X connect 5 0 1 0;
#X connect 5 1 1 1;
#X connect 6 0 0 0;
#X restore 256 301 pd apply_controls;
#N canvas 1097 497 267 273 apply_controls 0;
#X obj 81 92 *;
#X obj 81 149 +;
#X obj 99 54 receive gain;
#X obj 99 111 receive offset;
#X obj 99 73 t b f;
#X obj 99 130 t b f;
#X obj 81 35 inlet;
#X obj 81 168 outlet;
#X connect 0 0 1 0;
#X connect 1 0 7 0;
#X connect 2 0 4 0;
#X connect 3 0 5 0;
#X connect 4 0 0 0;
#X connect 4 1 0 1;
#X connect 5 0 1 0;
#X connect 5 1 1 1;
#X connect 6 0 0 0;
#X restore 273 324 pd apply_controls;
#N canvas 1097 497 267 273 apply_controls 0;
#X obj 81 92 *;
#X obj 81 149 +;
#X obj 99 54 receive gain;
#X obj 99 111 receive offset;
#X obj 99 73 t b f;
#X obj 99 130 t b f;
#X obj 81 35 inlet;
#X obj 81 168 outlet;
#X connect 0 0 1 0;
#X connect 1 0 7 0;
#X connect 2 0 4 0;
#X connect 3 0 5 0;
#X connect 4 0 0 0;
#X connect 4 1 0 1;
#X connect 5 0 1 0;
#X connect 5 1 1 1;
#X connect 6 0 0 0;
#X restore 290 347 pd apply_controls;
#N canvas 1097 497 267 273 apply_controls 0;
#X obj 81 92 *;
#X obj 81 149 +;
#X obj 99 54 receive gain;
#X obj 99 111 receive offset;
#X obj 99 73 t b f;
#X obj 99 130 t b f;
#X obj 81 35 inlet;
#X obj 81 168 outlet;
#X connect 0 0 1 0;
#X connect 1 0 7 0;
#X connect 2 0 4 0;
#X connect 3 0 5 0;
#X connect 4 0 0 0;
#X connect 4 1 0 1;
#X connect 5 0 1 0;
#X connect 5 1 1 1;
#X connect 6 0 0 0;
#X restore 306 370 pd apply_controls;
#N canvas 1097 497 267 273 apply_controls 0;
#X obj 81 92 *;
#X obj 81 149 +;
#X obj 99 54 receive gain;
#X obj 99 111 receive offset;
#X obj 99 73 t b f;
#X obj 99 130 t b f;
#X obj 81 35 inlet;
#X obj 81 168 outlet;
#X connect 0 0 1 0;
#X connect 1 0 7 0;
#X connect 2 0 4 0;
#X connect 3 0 5 0;
#X connect 4 0 0 0;
#X connect 4 1 0 1;
#X connect 5 0 1 0;
#X connect 5 1 1 1;
#X connect 6 0 0 0;
#X restore 323 393 pd apply_controls;
#N canvas 1097 497 267 273 apply_controls 0;
#X obj 81 92 *;
#X obj 81 149 +;
#X obj 99 54 receive gain;
#X obj 99 111 receive offset;
#X obj 99 73 t b f;
#X obj 99 130 t b f;
#X obj 81 35 inlet;
#X obj 81 168 outlet;
#X connect 0 0 1 0;
#X connect 1 0 7 0;
#X connect 2 0 4 0;
#X connect 3 0 5 0;
#X connect 4 0 0 0;
#X connect 4 1 0 1;
#X connect 5 0 1 0;
#X connect 5 1 1 1;
#X connect 6 0 0 0;
#X restore 339 416 pd apply_controls;
#N canvas 1097 497 267 273 apply_controls 0;
#X obj 81 92 *;
#X obj 81 149 +;
#X obj 99 54 receive gain;
#X obj 99 111 receive offset;
#X obj 99 73 t b f;
#X obj 99 130 t b f;
#X obj 81 35 inlet;
#X obj 81 168 outlet;
#X connect 0 0 1 0;
#X connect 1 0 7 0;
#X connect 2 0 4 0;
#X connect 3 0 5 0;
#X connect 4 0 0 0;
#X connect 4 1 0 1;
#X connect 5 0 1 0;
#X connect 5 1 1 1;
#X connect 6 0 0 0;
#X restore 356 439 pd apply_controls;
#N canvas 1097 497 267 273 apply_controls 0;
#X obj 81 92 *;
#X obj 81 149 +;
#X obj 99 54 receive gain;
#X obj 99 111 receive offset;
#X obj 99 73 t b f;
#X obj 99 130 t b f;
#X obj 81 35 inlet;
#X obj 81 168 outlet;
#X connect 0 0 1 0;
#X connect 1 0 7 0;
#X connect 2 0 4 0;
#X connect 3 0 5 0;
#X connect 4 0 0 0;
#X connect 4 1 0 1;
#X connect 5 0 1 0;
#X connect 5 1 1 1;
#X connect 6 0 0 0;
#X restore 373 461 pd apply_controls;
#X obj 124 481 pack f f f f f f f f f f f f f f f f;
#X obj 124 74 inlet;
#X obj 124 93 unpack f f f f f f f f f f f f f f f f;
#X obj 124 500 outlet;
#X connect 0 0 16 0;
#X connect 1 0 16 1;
#X connect 2 0 16 2;
#X connect 3 0 16 3;
#X connect 4 0 16 4;
#X connect 5 0 16 5;
#X connect 6 0 16 6;
#X connect 7 0 16 7;
#X connect 8 0 16 8;
#X connect 9 0 16 9;
#X connect 10 0 16 10;
#X connect 11 0 16 11;
#X connect 12 0 16 12;
#X connect 13 0 16 13;
#X connect 14 0 16 14;
#X connect 15 0 16 15;
#X connect 16 0 19 0;
#X connect 17 0 18 0;
#X connect 18 0 0 0;
#X connect 18 1 1 0;
#X connect 18 2 2 0;
#X connect 18 3 3 0;
#X connect 18 4 4 0;
#X connect 18 5 5 0;
#X connect 18 6 6 0;
#X connect 18 7 7 0;
#X connect 18 8 8 0;
#X connect 18 9 9 0;
#X connect 18 10 10 0;
#X connect 18 11 11 0;
#X connect 18 12 12 0;
#X connect 18 13 13 0;
#X connect 18 14 14 0;
#X connect 18 15 15 0;
#X restore 307 70 pd apply_controls;
#X connect 1 0 0 0;
#X connect 2 0 0 0;
#X connect 3 0 0 0;
#X connect 4 0 13 0;
#X connect 5 0 10 0;
#X connect 6 0 7 0;
#X connect 7 0 11 0;
#X connect 9 0 14 0;
#X connect 12 0 9 0;
#X connect 13 0 5 0;
#X connect 14 0 13 0;
#X connect 14 1 13 1;
#X connect 15 0 17 0;
#X connect 16 0 34 0;
#X connect 17 0 1 0;
#X connect 18 0 22 0;
#X connect 19 0 20 0;
#X connect 20 0 1 0;
#X connect 21 0 1 0;
#X connect 22 0 19 0;
#X connect 23 0 35 0;
#X connect 24 0 26 0;
#X connect 24 0 25 0;
#X connect 24 0 30 0;
#X connect 25 0 4 0;
#X connect 26 0 6 0;
#X connect 30 0 18 0;
#X connect 31 0 8 0;
#X connect 31 0 8 1;
#X connect 33 0 31 0;
#X connect 33 1 31 1;
#X connect 33 2 31 2;
#X connect 33 3 31 3;
#X connect 33 4 31 4;
#X connect 33 5 31 5;
#X connect 33 6 31 6;
#X connect 33 7 31 7;
#X connect 33 8 31 8;
#X connect 33 9 31 9;
#X connect 33 10 31 10;
#X connect 33 11 31 11;
#X connect 33 12 31 12;
#X connect 33 13 31 13;
#X connect 33 14 31 14;
#X connect 33 15 31 15;
#X connect 34 0 21 0;
#X connect 35 0 32 0;
#X connect 35 0 33 0;
